<svg width="868" height="430" viewBox="0 0 868 430" fill="none" xmlns="http://www.w3.org/2000/svg">
<path fill-rule="evenodd" clip-rule="evenodd" d="M311.897 2.03755C329.437 2.64789 395.802 10.6087 446.753 19.2991C499.983 28.3784 570.476 54.5148 570.476 54.5148C570.476 54.5148 639.2 79.8854 682.027 101.149C711.639 115.851 729.834 128.235 756.41 146.324C760.471 149.088 764.728 151.986 769.252 155.045C800.278 176.029 820.945 195.767 832.64 210.157C833.012 210.615 833.398 211.089 833.796 211.578C845.924 226.471 869.682 255.647 867.53 278.698C865.355 302.004 854.473 311.191 827.015 318.549C794.74 327.197 763.967 328.493 739.915 329.506H739.915C737.736 329.597 735.612 329.687 733.548 329.779C721.265 330.329 711.429 330.755 702.295 331.152L702.28 331.152L702.273 331.153L702.255 331.153C685.81 331.867 671.63 332.482 649.519 333.538C604.22 335.702 578.779 338.429 534.232 345.775C494.614 352.307 472.34 358.77 431.38 373.334C393.347 386.856 368.357 395.038 330.264 405.98L329.847 406.1L329.846 406.101C321.533 408.488 313.572 410.775 305.777 412.899C293.234 417.549 280.082 420.945 266.474 422.936C249.091 427.544 230.832 430 212 430C94.9156 430 0 335.084 0 218C0 147.025 34.8775 84.197 88.4283 45.7187C101.026 34.4869 120.308 24.6692 144.297 17.0406C152.104 14.4112 160.115 12.2241 168.3 10.509C197.251 3.83024 230.985 0 267 0C282.451 0 297.483 0.705025 311.897 2.03755Z" fill="url(#paint0_linear_1_203)"/>
<defs>
<linearGradient id="paint0_linear_1_203" x1="844.5" y1="278.5" x2="195.103" y2="668.308" gradientUnits="userSpaceOnUse">
<stop stop-color="#FF2927"/>
<stop offset="0.364583" stop-color="#FD6530"/>
<stop offset="0.58859" stop-color="#FE882B"/>
<stop offset="0.823023" stop-color="#FFC122"/>
<stop offset="1" stop-color="#FE9828"/>
</linearGradient>
</defs>
</svg>
