<svg width="868" height="430" viewBox="0 0 868 430" fill="none" xmlns="http://www.w3.org/2000/svg">
<path fill-rule="evenodd" clip-rule="evenodd" d="M555.77 2.03755C538.23 2.64789 471.865 10.6087 420.914 19.2991C367.684 28.3784 297.191 54.5148 297.191 54.5148C297.191 54.5148 228.467 79.8854 185.64 101.149C156.028 115.851 137.833 128.235 111.257 146.324C107.196 149.088 102.939 151.986 98.4152 155.045C67.3893 176.029 46.7217 195.767 35.0267 210.157C34.6547 210.615 34.2689 211.089 33.8705 211.578C21.743 226.471 -2.0152 255.647 0.136536 278.698C2.31213 302.004 13.1937 311.191 40.6522 318.549C72.9267 327.197 103.7 328.493 127.752 329.506H127.752C129.931 329.597 132.055 329.687 134.119 329.779C146.402 330.329 156.238 330.755 165.372 331.152L165.387 331.152L165.394 331.153L165.411 331.153C181.857 331.867 196.037 332.482 218.148 333.538C263.447 335.702 288.888 338.429 333.435 345.775C373.053 352.307 395.327 358.77 436.287 373.334C474.32 386.856 499.31 395.038 537.403 405.98L537.82 406.1L537.821 406.101C546.134 408.488 554.095 410.775 561.89 412.899C574.433 417.549 587.585 420.945 601.193 422.936C618.576 427.544 636.835 430 655.667 430C772.751 430 867.667 335.084 867.667 218C867.667 147.025 832.79 84.197 779.239 45.7187C766.641 34.4869 747.359 24.6692 723.37 17.0406C715.563 14.4112 707.552 12.2241 699.367 10.509C670.416 3.83024 636.682 0 600.667 0C585.216 0 570.184 0.705025 555.77 2.03755Z" fill="#F2F2F2"/>
</svg>
