<svg width="187" height="142" viewBox="0 0 187 142" fill="none" xmlns="http://www.w3.org/2000/svg">
<path d="M28.5281 18.5762C28.2961 14.1962 28.0161 8.92815 28.0641 5.00815H27.9241C26.8521 8.69215 25.5441 12.6081 23.9641 16.9442L18.4161 32.1882H15.3401L10.2601 17.2241C8.76806 12.7961 7.50806 8.74015 6.62406 5.00815H6.53206C6.43606 8.92415 6.20406 14.1921 5.92406 18.9001L5.08406 32.3721H1.21606L3.40806 0.952148H8.58006L13.9441 16.1522C15.2481 20.0202 16.3201 23.4682 17.1121 26.7322H17.2521C18.0441 23.5642 19.1641 20.1122 20.5601 16.1522L26.1561 0.952148H31.3281L33.2881 32.3721H29.3241L28.5321 18.5721L28.5281 18.5762Z" fill="#270B3E"/>
<path d="M44.136 22.4921L40.872 32.3761H36.676L47.352 0.956055H52.248L62.968 32.3761H58.632L55.276 22.4921H44.136ZM54.436 19.3241L51.36 10.2801C50.66 8.22805 50.196 6.36405 49.728 4.54805H49.636C49.168 6.41205 48.656 8.32406 48.052 10.2321L44.976 19.3241H54.44H54.436Z" fill="#270B3E"/>
<path d="M69.956 4.40405H60.396V0.956055H83.66V4.40405H74.056V32.3761H69.956V4.40405Z" fill="#270B3E"/>
<path d="M87.1479 1.37563C89.1999 0.955635 92.136 0.723633 94.932 0.723633C99.268 0.723633 102.064 1.51563 104.024 3.28763C105.608 4.68363 106.496 6.83163 106.496 9.25563C106.496 13.4036 103.884 16.1556 100.576 17.2716V17.4116C103 18.2516 104.448 20.4876 105.192 23.7516C106.216 28.1316 106.964 31.1636 107.616 32.3756H103.42C102.908 31.4876 102.208 28.7876 101.32 24.8716C100.388 20.5356 98.712 18.9036 95.028 18.7636H91.2039V32.3756H87.1479V1.37563ZM91.2039 15.6876H95.352C99.688 15.6876 102.44 13.3076 102.44 9.71964C102.44 5.66363 99.504 3.89163 95.212 3.84363C93.256 3.84363 91.8559 4.03164 91.2039 4.21964V15.6876Z" fill="#270B3E"/>
<path d="M118.7 32.3761V19.0441L108.768 0.956055H113.384L117.812 9.62806C119.024 12.0081 119.956 13.9161 120.936 16.1081H121.028C121.912 14.0561 122.984 12.0041 124.196 9.62806L128.72 0.956055H133.336L122.8 18.9961V32.3761H118.696H118.7Z" fill="#270B3E"/>
<path d="M157.2 31.3523C155.708 32.1003 152.724 32.8443 148.9 32.8443C140.044 32.8443 133.376 27.2483 133.376 16.9483C133.376 6.64833 140.044 0.444336 149.784 0.444336C153.7 0.444336 156.168 1.28434 157.244 1.84434L156.264 5.15234C154.724 4.40434 152.536 3.84833 149.924 3.84833C142.56 3.84833 137.664 8.55634 137.664 16.8083C137.664 24.5003 142.092 29.4403 149.74 29.4403C152.212 29.4403 154.728 28.9283 156.36 28.1363L157.2 31.3523Z" fill="#270B3E"/>
<path d="M167.54 22.4921L164.276 32.3761H160.08L170.756 0.956055H175.652L186.372 32.3761H182.036L178.68 22.4921H167.54ZM177.84 19.3241L174.764 10.2801C174.064 8.22805 173.6 6.36405 173.132 4.54805H173.04C172.572 6.41205 172.06 8.32406 171.456 10.2321L168.38 19.3241H177.844H177.84Z" fill="#270B3E"/>
<mask id="mask0_599_4036" style="mask-type:luminance" maskUnits="userSpaceOnUse" x="34" y="39" width="59" height="60">
<path d="M92.8359 68.9404C92.8359 85.1404 79.7039 98.2724 63.5039 98.2724C47.3039 98.2724 34.1719 85.1404 34.1719 68.9404C34.1719 52.7404 47.3039 39.6084 63.5039 39.6084C79.7039 39.6084 92.8359 52.7404 92.8359 68.9404Z" fill="white"/>
</mask>
<g mask="url(#mask0_599_4036)">
<path d="M34.1719 39.6084H92.8359V98.2724H34.1719V39.6084Z" fill="url(#paint0_linear_599_4036)"/>
</g>
<mask id="mask1_599_4036" style="mask-type:luminance" maskUnits="userSpaceOnUse" x="54" y="41" width="19" height="20">
<path d="M54.0161 50.7204C54.0161 55.9604 58.2641 60.2084 63.5041 60.2084C68.7441 60.2084 72.9921 55.9604 72.9921 50.7204C72.9921 45.4804 68.7441 41.2324 63.5041 41.2324C58.2641 41.2324 54.0161 45.4804 54.0161 50.7204Z" fill="white"/>
</mask>
<g mask="url(#mask1_599_4036)">
<path d="M63.5065 31.7476L44.5334 50.7207L63.5065 69.6938L82.4796 50.7207L63.5065 31.7476Z" fill="url(#paint1_linear_599_4036)"/>
</g>
<path d="M1.11597 39.0479H8.67997V91.2999H33.72V97.6478H1.11597V39.0479Z" fill="#270B3E"/>
<path d="M99.8679 89.3838C103.256 91.4718 108.216 93.2118 113.432 93.2118C121.168 93.2118 125.688 89.1278 125.688 83.2118C125.688 77.7358 122.556 74.6078 114.648 71.5638C105.084 68.1758 99.1719 63.2158 99.1719 54.9598C99.1719 45.8318 106.736 39.0518 118.124 39.0518C124.12 39.0518 128.468 40.4438 131.076 41.9198L128.988 48.0958C127.076 47.0518 123.164 45.3118 117.86 45.3118C109.864 45.3118 106.82 50.0918 106.82 54.0918C106.82 59.5678 110.384 62.2638 118.468 65.3958C128.38 69.2198 133.424 73.9998 133.424 82.6078C133.424 91.6478 126.728 99.4758 112.904 99.4758C107.252 99.4758 101.08 97.8238 97.9519 95.7358L99.8639 89.3878L99.8679 89.3838Z" fill="#270B3E"/>
<path d="M151.324 40.0039V74.6919C151.324 87.8199 157.148 93.3839 164.972 93.3839C173.664 93.3839 179.228 87.6479 179.228 74.6919V40.0039H186.88V74.1719C186.88 92.1679 177.404 99.5599 164.708 99.5599C152.712 99.5599 143.672 92.6919 143.672 74.5199V40.0039H151.324Z" fill="#270B3E"/>
<defs>
<linearGradient id="paint0_linear_599_4036" x1="92.1161" y1="69.5954" x2="33.4729" y2="69.5954" gradientUnits="userSpaceOnUse">
<stop stop-color="#FAAF3B"/>
<stop offset="0.11" stop-color="#FAAF3B"/>
<stop offset="0.25" stop-color="#FA9F38"/>
<stop offset="0.52" stop-color="#FB7532"/>
<stop offset="0.89" stop-color="#FE3328"/>
<stop offset="1" stop-color="#FF1D25"/>
</linearGradient>
<linearGradient id="paint1_linear_599_4036" x1="70.0003" y1="55.7372" x2="56.5915" y2="42.3283" gradientUnits="userSpaceOnUse">
<stop stop-color="#FAAF3B"/>
<stop offset="0.11" stop-color="#FAAF3B"/>
<stop offset="0.25" stop-color="#FA9F38"/>
<stop offset="0.52" stop-color="#FB7532"/>
<stop offset="0.89" stop-color="#FE3328"/>
<stop offset="1" stop-color="#FF1D25"/>
</linearGradient>
</defs>
</svg>
