<svg width="40" height="40" viewBox="0 0 40 40" fill="none" xmlns="http://www.w3.org/2000/svg">
<rect width="40" height="40" rx="20" fill="url(#paint0_linear_1_187)"/>
<path d="M16.6712 20.0512C16.6712 18.2087 18.164 16.7147 20.006 16.7147C21.848 16.7147 23.3416 18.2087 23.3416 20.0512C23.3416 21.8938 21.848 23.3878 20.006 23.3878C18.164 23.3878 16.6712 21.8938 16.6712 20.0512ZM14.868 20.0512C14.868 22.8898 17.1683 25.1907 20.006 25.1907C22.8437 25.1907 25.144 22.8898 25.144 20.0512C25.144 17.2127 22.8437 14.9118 20.006 14.9118C17.1683 14.9118 14.868 17.2127 14.868 20.0512ZM24.1466 14.708C24.1465 14.9456 24.2169 15.1778 24.3487 15.3754C24.4806 15.5729 24.6681 15.727 24.8874 15.818C25.1068 15.909 25.3482 15.9328 25.5811 15.8866C25.8141 15.8403 26.0281 15.726 26.1961 15.5581C26.364 15.3902 26.4785 15.1763 26.5249 14.9433C26.5713 14.7103 26.5477 14.4688 26.4569 14.2493C26.3661 14.0298 26.2122 13.8422 26.0148 13.7101C25.8174 13.5781 25.5853 13.5075 25.3478 13.5074H25.3474C25.029 13.5076 24.7238 13.6341 24.4987 13.8592C24.2735 14.0843 24.1469 14.3896 24.1466 14.708ZM15.9636 28.1982C14.988 28.1538 14.4578 27.9913 14.1054 27.8539C13.6383 27.672 13.3049 27.4553 12.9545 27.1053C12.604 26.7552 12.3871 26.4221 12.206 25.9548C12.0687 25.6025 11.9062 25.0719 11.8618 24.0961C11.8133 23.0411 11.8036 22.7242 11.8036 20.0513C11.8036 17.3785 11.8141 17.0624 11.8618 16.0065C11.9063 15.0307 12.07 14.5012 12.206 14.1478C12.3879 13.6805 12.6045 13.3471 12.9545 12.9966C13.3045 12.646 13.6375 12.429 14.1054 12.2479C14.4576 12.1105 14.988 11.948 15.9636 11.9036C17.0183 11.8551 17.3351 11.8454 20.006 11.8454C22.6769 11.8454 22.994 11.8559 24.0496 11.9036C25.0252 11.9481 25.5545 12.1118 25.9078 12.2479C26.3749 12.429 26.7083 12.6465 27.0587 12.9966C27.4092 13.3467 27.6253 13.6805 27.8072 14.1478C27.9445 14.5002 28.107 15.0307 28.1514 16.0065C28.1999 17.0624 28.2096 17.3785 28.2096 20.0513C28.2096 22.7242 28.1999 23.0402 28.1514 24.0961C28.1069 25.0719 27.9436 25.6023 27.8072 25.9548C27.6253 26.4221 27.4087 26.7555 27.0587 27.1053C26.7087 27.455 26.3749 27.672 25.9078 27.8539C25.5556 27.9913 25.0252 28.1539 24.0496 28.1982C22.9949 28.2468 22.6781 28.2565 20.006 28.2565C17.3339 28.2565 17.018 28.2468 15.9636 28.1982ZM15.8807 10.103C14.8155 10.1515 14.0877 10.3204 13.452 10.5679C12.7937 10.8234 12.2364 11.1662 11.6795 11.7223C11.1226 12.2785 10.7808 12.8368 10.5254 13.4953C10.278 14.1316 10.1091 14.8593 10.0606 15.9248C10.0113 16.992 10 17.3332 10 20.0512C10 22.7693 10.0113 23.1105 10.0606 24.1777C10.1091 25.2433 10.278 25.9709 10.5254 26.6071C10.7808 27.2653 11.1227 27.8242 11.6795 28.3802C12.2363 28.9361 12.7937 29.2784 13.452 29.5346C14.0889 29.782 14.8155 29.951 15.8807 29.9995C16.9482 30.048 17.2887 30.0601 20.006 30.0601C22.7233 30.0601 23.0644 30.0488 24.1313 29.9995C25.1966 29.951 25.9239 29.782 26.56 29.5346C27.2179 29.2784 27.7756 28.9363 28.3325 28.3802C28.8894 27.824 29.2305 27.2653 29.4866 26.6071C29.734 25.9709 29.9037 25.2432 29.9514 24.1777C29.9999 23.1097 30.0112 22.7693 30.0112 20.0512C30.0112 17.3332 29.9999 16.992 29.9514 15.9248C29.9029 14.8592 29.734 14.1312 29.4866 13.4953C29.2305 12.8372 28.8885 12.2794 28.3325 11.7223C27.7765 11.1653 27.2179 10.8234 26.5608 10.5679C25.9239 10.3204 25.1965 10.1507 24.1321 10.103C23.0652 10.0544 22.7241 10.0424 20.0068 10.0424C17.2895 10.0424 16.9482 10.0536 15.8807 10.103Z" fill="white"/>
<defs>
<linearGradient id="paint0_linear_1_187" x1="35" y1="13" x2="4.5" y2="33" gradientUnits="userSpaceOnUse">
<stop stop-color="#FF2927"/>
<stop offset="0.364583" stop-color="#FD6530"/>
<stop offset="1" stop-color="#FFC122"/>
</linearGradient>
</defs>
</svg>
