<svg width="12" height="17" viewBox="0 0 12 17" fill="none" xmlns="http://www.w3.org/2000/svg">
<path d="M10.9902 6.59766H1.63013C1.07013 6.59766 0.620117 7.04767 0.620117 7.60767V15.0776C0.620117 15.6376 1.07013 16.0876 1.63013 16.0876H10.9902C11.5502 16.0876 12.0002 15.6376 12.0002 15.0776V7.60767C12.0002 7.04767 11.5502 6.59766 10.9902 6.59766ZM7.21021 11.8176V12.5676C7.21021 13.0676 6.8103 13.4675 6.3103 13.4675C5.8103 13.4675 5.41016 13.0676 5.41016 12.5676V11.8176C5.03016 11.5376 4.78027 11.0876 4.78027 10.5776C4.78027 9.72764 5.47031 9.0376 6.32031 9.0376C7.17031 9.0376 7.86035 9.72764 7.86035 10.5776C7.86035 11.0876 7.61022 11.5376 7.23022 11.8176H7.21021Z" fill="#270B3E"/>
<path d="M8.35034 1.10791C7.68034 0.67791 7.00035 0.487773 6.36035 0.467773C6.36035 0.467773 6.3303 0.467773 6.3103 0.467773C6.2903 0.467773 6.28025 0.467773 6.26025 0.467773C5.62025 0.487773 4.94026 0.68792 4.27026 1.11792C3.50026 1.60792 3.03027 2.45769 3.03027 3.37769V5.8877H4.48022V3.81787C4.48022 2.79787 5.3003 1.95773 6.3103 1.92773C7.3303 1.95773 8.14014 2.79787 8.14014 3.81787V5.8877H9.59033V3.37769C9.59033 2.46769 9.12034 1.60792 8.35034 1.11792V1.10791Z" fill="#270B3E"/>
</svg>
