<svg width="100" height="100" viewBox="0 0 100 100" fill="none" xmlns="http://www.w3.org/2000/svg">
<g id="2-02 1">
<path id="Vector" d="M17.2644 34.2881C17.1484 32.0981 17.0084 29.4641 17.0324 27.5041H16.9624C16.4264 29.3461 15.7724 31.3041 14.9824 33.4721L12.2084 41.0941H10.6704L8.1304 33.6121C7.3844 31.3981 6.7544 29.3701 6.3124 27.5041H6.2664C6.2184 29.4621 6.1024 32.0961 5.9624 34.4501L5.5424 41.1861H3.6084L4.7044 25.4761H7.2904L9.9724 33.0761C10.6244 35.0101 11.1604 36.7341 11.5564 38.3661H11.6264C12.0224 36.7821 12.5824 35.0561 13.2804 33.0761L16.0784 25.4761H18.6644L19.6444 41.1861H17.6624L17.2664 34.2861L17.2644 34.2881Z" fill="white"/>
<path id="Vector_2" d="M25.0679 36.246L23.4359 41.188H21.3379L26.6759 25.478H29.1239L34.4839 41.188H32.3159L30.6379 36.246H25.0679ZM30.2179 34.662L28.6799 30.14C28.3299 29.114 28.0979 28.182 27.8639 27.274H27.8179C27.5839 28.206 27.3279 29.162 27.0259 30.116L25.4879 34.662H30.2199H30.2179Z" fill="white"/>
<path id="Vector_3" d="M37.9782 27.202H33.1982V25.478H44.8302V27.202H40.0282V41.188H37.9782V27.202Z" fill="white"/>
<path id="Vector_4" d="M46.5742 25.6878C47.6002 25.4778 49.0682 25.3618 50.4662 25.3618C52.6342 25.3618 54.0322 25.7578 55.0122 26.6438C55.8042 27.3418 56.2482 28.4158 56.2482 29.6278C56.2482 31.7018 54.9422 33.0778 53.2882 33.6358V33.7058C54.5002 34.1258 55.2242 35.2438 55.5962 36.8758C56.1082 39.0658 56.4822 40.5818 56.8082 41.1878H54.7102C54.4542 40.7438 54.1042 39.3938 53.6602 37.4358C53.1942 35.2678 52.3562 34.4518 50.5142 34.3818H48.6022V41.1878H46.5742V25.6878ZM48.6022 32.8438H50.6762C52.8442 32.8438 54.2202 31.6538 54.2202 29.8598C54.2202 27.8318 52.7522 26.9458 50.6062 26.9218C49.6282 26.9218 48.9282 27.0158 48.6022 27.1098V32.8438Z" fill="white"/>
<path id="Vector_5" d="M62.3498 41.188V34.522L57.3838 25.478H59.6918L61.9058 29.814C62.5118 31.004 62.9778 31.958 63.4678 33.054H63.5138C63.9558 32.028 64.4918 31.002 65.0978 29.814L67.3598 25.478H69.6678L64.3998 34.498V41.188H62.3478H62.3498Z" fill="white"/>
<path id="Vector_6" d="M81.6005 40.6762C80.8545 41.0502 79.3625 41.4222 77.4505 41.4222C73.0225 41.4222 69.6885 38.6242 69.6885 33.4742C69.6885 28.3242 73.0225 25.2222 77.8925 25.2222C79.8505 25.2222 81.0845 25.6422 81.6225 25.9222L81.1325 27.5762C80.3625 27.2022 79.2685 26.9242 77.9625 26.9242C74.2805 26.9242 71.8325 29.2782 71.8325 33.4042C71.8325 37.2502 74.0465 39.7202 77.8705 39.7202C79.1065 39.7202 80.3645 39.4642 81.1805 39.0682L81.6005 40.6762Z" fill="white"/>
<path id="Vector_7" d="M86.77 36.246L85.138 41.188H83.04L88.378 25.478H90.826L96.186 41.188H94.018L92.34 36.246H86.77ZM91.92 34.662L90.382 30.14C90.032 29.114 89.8 28.182 89.566 27.274H89.52C89.286 28.206 89.03 29.162 88.728 30.116L87.19 34.662H91.922H91.92Z" fill="white"/>
<g id="Clip path group">
<mask id="mask0_1_26" style="mask-type:luminance" maskUnits="userSpaceOnUse" x="20" y="44" width="30" height="31">
<g id="b">
<path id="Vector_8" d="M20.0859 59.4702C20.0859 67.5702 26.6519 74.1362 34.7519 74.1362C42.8519 74.1362 49.4179 67.5702 49.4179 59.4702C49.4179 51.3702 42.8519 44.8042 34.7519 44.8042C26.6519 44.8042 20.0859 51.3702 20.0859 59.4702Z" fill="white"/>
</g>
</mask>
<g mask="url(#mask0_1_26)">
<g id="Group">
<path id="Vector_9" d="M49.4179 44.8042H20.0859V74.1362H49.4179V44.8042Z" fill="url(#paint0_linear_1_26)"/>
</g>
</g>
</g>
<g id="Clip path group_2">
<mask id="mask1_1_26" style="mask-type:luminance" maskUnits="userSpaceOnUse" x="30" y="45" width="10" height="11">
<g id="d">
<path id="Vector_10" d="M30.0078 50.3602C30.0078 52.9802 32.1318 55.1042 34.7518 55.1042C37.3718 55.1042 39.4958 52.9802 39.4958 50.3602C39.4958 47.7402 37.3718 45.6162 34.7518 45.6162C32.1318 45.6162 30.0078 47.7402 30.0078 50.3602Z" fill="white"/>
</g>
</mask>
<g mask="url(#mask1_1_26)">
<g id="Group_2">
<path id="Vector_11" d="M34.7531 40.8738L25.2666 50.3604L34.7531 59.8469L44.2397 50.3604L34.7531 40.8738Z" fill="url(#paint1_linear_1_26)"/>
</g>
</g>
</g>
<path id="Vector_12" d="M3.55762 44.5239H7.33962V70.6499H19.8596V73.8239H3.55762V44.5239Z" fill="white"/>
<path id="Vector_13" d="M52.9336 69.6919C54.6276 70.7359 57.1076 71.6059 59.7156 71.6059C63.5836 71.6059 65.8436 69.5639 65.8436 66.6059C65.8436 63.8679 64.2776 62.3039 60.3236 60.7819C55.5416 59.0879 52.5856 56.6079 52.5856 52.4799C52.5856 47.9159 56.3676 44.5259 62.0616 44.5259C65.0596 44.5259 67.2336 45.2219 68.5376 45.9599L67.4936 49.0479C66.5376 48.5259 64.5816 47.6559 61.9296 47.6559C57.9316 47.6559 56.4096 50.0459 56.4096 52.0459C56.4096 54.7839 58.1916 56.1319 62.2336 57.6979C67.1896 59.6099 69.7116 61.9999 69.7116 66.3039C69.7116 70.8239 66.3636 74.7379 59.4516 74.7379C56.6256 74.7379 53.5396 73.9119 51.9756 72.8679L52.9316 69.6939L52.9336 69.6919Z" fill="white"/>
<path id="Vector_14" d="M78.6619 45.002V62.346C78.6619 68.91 81.5739 71.692 85.4859 71.692C89.8319 71.692 92.6139 68.824 92.6139 62.346V45.002H96.4399V62.086C96.4399 71.084 91.7019 74.78 85.3539 74.78C79.3559 74.78 74.8359 71.346 74.8359 62.26V45.002H78.6619Z" fill="white"/>
</g>
<defs>
<linearGradient id="paint0_linear_1_26" x1="20.4459" y1="59.7977" x2="49.7675" y2="59.7977" gradientUnits="userSpaceOnUse">
<stop stop-color="#FAAF3B"/>
<stop offset="0.11" stop-color="#FAAF3B"/>
<stop offset="0.25" stop-color="#FA9F38"/>
<stop offset="0.52" stop-color="#FB7532"/>
<stop offset="0.89" stop-color="#FE3328"/>
<stop offset="1" stop-color="#FF1D25"/>
</linearGradient>
<linearGradient id="paint1_linear_1_26" x1="38" y1="52.8686" x2="31.2956" y2="46.1642" gradientUnits="userSpaceOnUse">
<stop stop-color="#FAAF3B"/>
<stop offset="0.11" stop-color="#FAAF3B"/>
<stop offset="0.25" stop-color="#FA9F38"/>
<stop offset="0.52" stop-color="#FB7532"/>
<stop offset="0.89" stop-color="#FE3328"/>
<stop offset="1" stop-color="#FF1D25"/>
</linearGradient>
</defs>
</svg>
