<svg width="40" height="40" viewBox="0 0 40 40" fill="none" xmlns="http://www.w3.org/2000/svg">
<rect width="40" height="40" rx="20" fill="#0C0C0C"/>
<path fill-rule="evenodd" clip-rule="evenodd" d="M24.3207 17.2813C25.6604 18.2345 27.2648 18.7438 28.9085 18.7376V15.4772C28.5853 15.4781 28.2631 15.4434 27.9475 15.3739V17.9714C26.3001 17.9743 24.6934 17.4592 23.3543 16.4988V23.2045C23.3503 24.3048 23.0488 25.3836 22.4818 26.3263C21.9149 27.2691 21.1036 28.0407 20.134 28.5593C19.1644 29.078 18.0727 29.3243 16.9745 29.2723C15.8764 29.2202 14.8128 28.8717 13.8965 28.2636C14.744 29.1219 15.827 29.7092 17.0082 29.9511C18.1894 30.1929 19.4157 30.0785 20.532 29.6223C21.6482 29.1661 22.604 28.3887 23.2785 27.3884C23.9529 26.3881 24.3157 25.21 24.3207 24.0033V17.2813ZM25.5097 13.9556C24.8285 13.2165 24.4104 12.2727 24.3207 11.2712V10.8473H23.4086C23.5214 11.4839 23.7667 12.0897 24.1287 12.6252C24.4907 13.1608 24.9612 13.614 25.5097 13.9556ZM16.0085 25.6824C15.6923 25.2687 15.4986 24.7744 15.4493 24.2558C15.4 23.7373 15.4972 23.2153 15.7297 22.7493C15.9622 22.2833 16.3208 21.8919 16.7645 21.6198C17.2083 21.3477 17.7195 21.2058 18.2399 21.2102C18.5272 21.2101 18.8129 21.2541 19.0869 21.3406V17.9714C18.7666 17.929 18.4435 17.9108 18.1205 17.9171V20.5363C17.4533 20.3252 16.7311 20.3732 16.0977 20.6708C15.4643 20.9683 14.9659 21.4936 14.7018 22.1422C14.4377 22.7907 14.4271 23.515 14.6723 24.171C14.9174 24.827 15.4002 25.3666 16.0248 25.6824H16.0085Z" fill="#EE1D52"/>
<path fill-rule="evenodd" clip-rule="evenodd" d="M23.3534 16.477C24.6925 17.4375 26.2992 17.9526 27.9466 17.9497V15.3522C27.008 15.1535 26.1553 14.6651 25.5088 13.9556C24.9603 13.614 24.4898 13.1608 24.1278 12.6252C23.7658 12.0897 23.5204 11.4839 23.4077 10.8473H21.0079V24.0033C21.0057 24.5856 20.8213 25.1526 20.4807 25.6247C20.1401 26.0968 19.6603 26.4503 19.1087 26.6355C18.5571 26.8207 17.9614 26.8284 17.4052 26.6575C16.849 26.4866 16.3602 26.1456 16.0076 25.6824C15.4486 25.4002 15.001 24.9377 14.7369 24.3695C14.4728 23.8014 14.4077 23.1608 14.552 22.5511C14.6963 21.9413 15.0416 21.398 15.5323 21.0088C16.0229 20.6196 16.6303 20.4072 17.2563 20.4059C17.5435 20.4068 17.829 20.4508 18.1033 20.5363V17.9171C16.9184 17.9455 15.7676 18.3197 14.7921 18.9935C13.8167 19.6674 13.059 20.6116 12.6122 21.7104C12.1653 22.8092 12.0488 24.0146 12.2767 25.1787C12.5047 26.3429 13.0674 27.415 13.8956 28.2636C14.812 28.8761 15.8773 29.2282 16.9779 29.2825C18.0785 29.3369 19.1733 29.0914 20.1455 28.5722C21.1177 28.053 21.931 27.2796 22.4988 26.3344C23.0666 25.3891 23.3676 24.3074 23.3697 23.2045L23.3534 16.477Z" fill="white"/>
<path fill-rule="evenodd" clip-rule="evenodd" d="M27.9471 15.352V14.651C27.0851 14.6546 26.2398 14.4135 25.5093 13.9554C26.1542 14.6669 27.0075 15.1558 27.9471 15.352ZM23.4082 10.8471C23.4082 10.7221 23.3702 10.5917 23.3539 10.4667V10.0428H20.042V23.2043C20.0391 23.9412 19.7443 24.647 19.2221 25.1665C18.6999 25.6861 17.9931 25.9771 17.2568 25.9757C16.8232 25.9779 16.3953 25.8773 16.008 25.6822C16.3607 26.1454 16.8495 26.4864 17.4057 26.6573C17.9618 26.8282 18.5575 26.8205 19.1091 26.6353C19.6607 26.4501 20.1405 26.0966 20.4812 25.6245C20.8218 25.1524 21.0062 24.5854 21.0084 24.0031V10.8471H23.4082ZM18.1038 17.9115V17.167C16.7409 16.9817 15.3556 17.2638 14.1735 17.9675C12.9914 18.6711 12.0823 19.7547 11.5943 21.0417C11.1063 22.3286 11.0681 23.7431 11.4861 25.0546C11.9041 26.366 12.7536 27.4971 13.8961 28.2634C13.0741 27.4129 12.5175 26.3411 12.2941 25.1791C12.0708 24.0171 12.1905 22.8151 12.6385 21.7201C13.0865 20.625 13.8434 19.6842 14.8169 19.0127C15.7903 18.3412 16.9381 17.9679 18.12 17.9386L18.1038 17.9115Z" fill="#69C9D0"/>
</svg>
